<svg xmlns="http://www.w3.org/2000/svg" data-name="Layer 1" viewBox="0 0 100 125" x="0px" y="0px"><title>Artboard 4</title><path d="M72.42,54.81a2,2,0,0,0-3.24,1.57l0,10.84-11,0a2,2,0,0,0-2,2v8a2,2,0,0,0,2,2l11,0,0,10.84a2,2,0,0,0,3.25,1.55L95.26,74.73a2,2,0,0,0,0-3.12Z"/><path d="M10.23,94.48l45.27.09a2,2,0,0,0,2-2V85.25a2,2,0,0,0-2-2H21.61a1.87,1.87,0,0,1-1.87-1.89l.41-63.11A1.87,1.87,0,0,1,22,16.38l37.5-.12a1.88,1.88,0,0,1,1.88,1.89l0,15.44a1.87,1.87,0,0,0,1.87,1.89l15.07.11a1.89,1.89,0,0,1,1.88,1.89l0,7.8a2,2,0,0,0,2,2h7.33a2,2,0,0,0,2-2V30A5.65,5.65,0,0,0,90,26L70.23,6.65a5.64,5.64,0,0,0-4-1.65H10.81a1.89,1.89,0,0,0-1.9,1.87L8.36,92.59A1.88,1.88,0,0,0,10.23,94.48Z"/><text x="0" y="115" fill="#000000" font-size="5px" font-weight="bold" font-family="'Helvetica Neue', Helvetica, Arial-Unicode, Arial, Sans-serif">Created by Mike Rowe</text><text x="0" y="120" fill="#000000" font-size="5px" font-weight="bold" font-family="'Helvetica Neue', Helvetica, Arial-Unicode, Arial, Sans-serif">from the Noun Project</text></svg>